<?xml version="1.0" encoding="UTF-8"?><svg xmlns="http://www.w3.org/2000/svg" xmlns:xlink="http://www.w3.org/1999/xlink" fill-opacity="1" color-rendering="auto" color-interpolation="auto" text-rendering="auto" stroke="black" stroke-linecap="square" width="698" stroke-miterlimit="10" shape-rendering="auto" stroke-opacity="1" fill="black" stroke-dasharray="none" font-weight="normal" stroke-width="1" height="501" font-family="'Dialog'" font-style="normal" stroke-linejoin="miter" font-size="12px" stroke-dashoffset="0" image-rendering="auto">
  <!--Generated by ySVG 2.5-->
  <defs id="genericDefs"/>
  <g>
    <defs id="defs1">
      <clipPath clipPathUnits="userSpaceOnUse" id="clipPath1">
        <path d="M0 0 L698 0 L698 501 L0 501 L0 0 Z"/>
      </clipPath>
      <clipPath clipPathUnits="userSpaceOnUse" id="clipPath2">
        <path d="M-77 -27 L853.6667 -27 L853.6667 641 L-77 641 L-77 -27 Z"/>
      </clipPath>
    </defs>
    <g fill="white" text-rendering="geometricPrecision" shape-rendering="geometricPrecision" transform="scale(0.75,0.75) translate(77,27)" stroke="white">
      <rect x="-77" width="931" height="668" y="-27" clip-path="url(#clipPath2)" stroke="none"/>
    </g>
    <g fill="white" text-rendering="geometricPrecision" shape-rendering="geometricPrecision" transform="matrix(0.75,0,0,0.75,57.75,20.25)" stroke="white">
      <rect x="642" y="512.5" clip-path="url(#clipPath2)" width="120" rx="4" ry="4" height="60" stroke="none"/>
    </g>
    <g text-rendering="geometricPrecision" stroke-miterlimit="1.45" stroke-width="3" shape-rendering="geometricPrecision" transform="matrix(0.75,0,0,0.75,57.75,20.25)" stroke-linecap="butt">
      <rect x="642" y="512.5" clip-path="url(#clipPath2)" fill="none" width="120" rx="4" ry="4" height="60"/>
      <text x="694.3301" y="547.2139" clip-path="url(#clipPath2)" font-family="sans-serif" stroke="none" stroke-width="1" xml:space="preserve">R1</text>
    </g>
    <g fill="white" text-rendering="geometricPrecision" shape-rendering="geometricPrecision" transform="matrix(0.75,0,0,0.75,57.75,20.25)" stroke="white">
      <rect x="603" y="256.5" clip-path="url(#clipPath2)" width="120" rx="4" ry="4" height="60" stroke="none"/>
    </g>
    <g text-rendering="geometricPrecision" stroke-miterlimit="1.45" stroke-width="3" shape-rendering="geometricPrecision" transform="matrix(0.75,0,0,0.75,57.75,20.25)" stroke-linecap="butt">
      <rect x="603" y="256.5" clip-path="url(#clipPath2)" fill="none" width="120" rx="4" ry="4" height="60"/>
      <text x="655.3301" y="291.2139" clip-path="url(#clipPath2)" font-family="sans-serif" stroke="none" stroke-width="1" xml:space="preserve">R2</text>
    </g>
    <g fill="white" text-rendering="geometricPrecision" shape-rendering="geometricPrecision" transform="matrix(0.75,0,0,0.75,57.75,20.25)" stroke="white">
      <rect x="403" y="420.5" clip-path="url(#clipPath2)" width="120" rx="4" ry="4" height="60" stroke="none"/>
    </g>
    <g stroke-linecap="butt" transform="matrix(0.75,0,0,0.75,57.75,20.25)" fill="silver" text-rendering="geometricPrecision" shape-rendering="geometricPrecision" stroke="silver" stroke-width="2" stroke-miterlimit="1.45">
      <rect x="403" y="420.5" clip-path="url(#clipPath2)" fill="none" width="120" rx="4" ry="4" height="60"/>
      <text x="455.3301" y="455.2139" clip-path="url(#clipPath2)" font-family="sans-serif" stroke="none" stroke-width="1" xml:space="preserve">R3</text>
    </g>
    <g fill="white" text-rendering="geometricPrecision" shape-rendering="geometricPrecision" transform="matrix(0.75,0,0,0.75,57.75,20.25)" stroke="white">
      <rect x="697" y="12.5" clip-path="url(#clipPath2)" width="120" rx="4" ry="4" height="60" stroke="none"/>
    </g>
    <g stroke-linecap="butt" transform="matrix(0.75,0,0,0.75,57.75,20.25)" fill="lime" text-rendering="geometricPrecision" shape-rendering="geometricPrecision" stroke="lime" stroke-width="5" stroke-miterlimit="1.45">
      <rect x="697" y="12.5" clip-path="url(#clipPath2)" fill="none" width="120" rx="4" ry="4" height="60"/>
      <text x="749.3301" y="47.2139" clip-path="url(#clipPath2)" font-family="sans-serif" stroke="none" stroke-width="1" xml:space="preserve">R4</text>
    </g>
    <g fill="white" text-rendering="geometricPrecision" shape-rendering="geometricPrecision" transform="matrix(0.75,0,0,0.75,57.75,20.25)" stroke="white">
      <rect x="236" y="249.25" clip-path="url(#clipPath2)" width="120" rx="4" ry="4" height="60" stroke="none"/>
    </g>
    <g text-rendering="geometricPrecision" stroke-miterlimit="1.45" stroke-width="3" shape-rendering="geometricPrecision" transform="matrix(0.75,0,0,0.75,57.75,20.25)" stroke-linecap="butt">
      <rect x="236" y="249.25" clip-path="url(#clipPath2)" fill="none" width="120" rx="4" ry="4" height="60"/>
      <text x="288.3301" y="283.9639" clip-path="url(#clipPath2)" font-family="sans-serif" stroke="none" stroke-width="1" xml:space="preserve">R1</text>
    </g>
    <g fill="white" text-rendering="geometricPrecision" shape-rendering="geometricPrecision" transform="matrix(0.75,0,0,0.75,57.75,20.25)" stroke="white">
      <rect x="-18" y="384.25" clip-path="url(#clipPath2)" width="120" rx="4" ry="4" height="60" stroke="none"/>
    </g>
    <g text-rendering="geometricPrecision" stroke-miterlimit="1.45" stroke-width="3" shape-rendering="geometricPrecision" transform="matrix(0.75,0,0,0.75,57.75,20.25)" stroke-linecap="butt">
      <rect x="-18" y="384.25" clip-path="url(#clipPath2)" fill="none" width="120" rx="4" ry="4" height="60"/>
      <text x="34.3301" y="418.9639" clip-path="url(#clipPath2)" font-family="sans-serif" stroke="none" stroke-width="1" xml:space="preserve">R2</text>
    </g>
    <g fill="white" text-rendering="geometricPrecision" shape-rendering="geometricPrecision" transform="matrix(0.75,0,0,0.75,57.75,20.25)" stroke="white">
      <rect x="-18" y="123" clip-path="url(#clipPath2)" width="120" rx="4" ry="4" height="60" stroke="none"/>
    </g>
    <g text-rendering="geometricPrecision" stroke-miterlimit="1.45" stroke-width="3" shape-rendering="geometricPrecision" transform="matrix(0.75,0,0,0.75,57.75,20.25)" stroke-linecap="butt">
      <rect x="-18" y="123" clip-path="url(#clipPath2)" fill="none" width="120" rx="4" ry="4" height="60"/>
      <text x="34.3301" y="157.7139" clip-path="url(#clipPath2)" font-family="sans-serif" stroke="none" stroke-width="1" xml:space="preserve">R3</text>
      <rect x="-56.5" y="-6.25" clip-path="url(#clipPath2)" fill="none" width="445" stroke-dasharray="6,2" rx="4" ry="4" height="627.5" stroke-width="1"/>
      <rect x="388.5" y="-6.25" clip-path="url(#clipPath2)" fill="none" width="445" stroke-dasharray="6,2" rx="4" ry="4" height="627.5" stroke-width="1"/>
      <rect x="294.5678" y="34.5" clip-path="url(#clipPath2)" fill="none" width="80" stroke-dasharray="6,2" rx="4" ry="4" height="38.75" stroke-width="1"/>
      <text x="318.5542" font-size="24px" y="63.3027" clip-path="url(#clipPath2)" font-family="sans-serif" stroke="none" stroke-width="1" xml:space="preserve">old</text>
      <rect x="401" y="33.75" clip-path="url(#clipPath2)" fill="none" width="80" stroke-dasharray="6,2" rx="4" ry="4" height="38.75" stroke-width="1"/>
      <text x="418.9863" font-size="24px" y="62.5527" clip-path="url(#clipPath2)" font-family="sans-serif" stroke="none" stroke-width="1" xml:space="preserve">new</text>
      <path fill="none" d="M697.4249 512.4688 L667.5679 316.4839" stroke-width="1" clip-path="url(#clipPath2)"/>
      <path fill="none" d="M626.4033 316.5093 L499.6022 420.4862" stroke-width="1" clip-path="url(#clipPath2)" stroke="silver"/>
      <path fill="none" d="M523.0126 473.6011 L642.0025 519.4047" stroke-width="1" clip-path="url(#clipPath2)" stroke="silver"/>
      <path fill="none" d="M674.5549 256.5063 L745.4363 72.5163" stroke-width="1" clip-path="url(#clipPath2)" stroke="lime"/>
      <path fill="none" d="M239.6003 309.2262 L98.4193 384.2633" stroke-width="1" clip-path="url(#clipPath2)"/>
      <path fill="none" d="M42 384.2407 L42 183.006" stroke-width="1" clip-path="url(#clipPath2)"/>
      <path fill="none" d="M100.5081 182.0813 L237.4622 250.1539" stroke-width="1" clip-path="url(#clipPath2)"/>
    </g>
  </g>
</svg>
