<?xml version="1.0" encoding="UTF-8"?><svg xmlns="http://www.w3.org/2000/svg" xmlns:xlink="http://www.w3.org/1999/xlink" fill-opacity="1" color-rendering="auto" color-interpolation="auto" text-rendering="auto" stroke="black" stroke-linecap="square" width="461" stroke-miterlimit="10" shape-rendering="auto" stroke-opacity="1" fill="black" stroke-dasharray="none" font-weight="normal" stroke-width="1" height="91" font-family="'Dialog'" font-style="normal" stroke-linejoin="miter" font-size="12px" stroke-dashoffset="0" image-rendering="auto">
  <!--Generated by ySVG 2.5-->
  <defs id="genericDefs"/>
  <g>
    <defs id="defs1">
      <clipPath clipPathUnits="userSpaceOnUse" id="clipPath1">
        <path d="M0 0 L461 0 L461 91 L0 91 L0 0 Z"/>
      </clipPath>
      <clipPath clipPathUnits="userSpaceOnUse" id="clipPath2">
        <path d="M307 414 L768 414 L768 505 L307 505 L307 414 Z"/>
      </clipPath>
    </defs>
    <g fill="white" text-rendering="geometricPrecision" shape-rendering="geometricPrecision" transform="translate(-307,-414)" stroke="white">
      <rect x="307" width="461" height="91" y="414" clip-path="url(#clipPath2)" stroke="none"/>
    </g>
    <g fill="white" text-rendering="geometricPrecision" shape-rendering="geometricPrecision" transform="matrix(1,0,0,1,-307,-414)" stroke="white">
      <rect x="322.2545" y="429.9254" clip-path="url(#clipPath2)" width="120" rx="4" ry="4" height="60" stroke="none"/>
    </g>
    <g text-rendering="geometricPrecision" stroke-miterlimit="1.45" stroke-width="3" shape-rendering="geometricPrecision" transform="matrix(1,0,0,1,-307,-414)" stroke-linecap="butt">
      <rect x="322.2545" y="429.9254" clip-path="url(#clipPath2)" fill="none" width="120" rx="4" ry="4" height="60"/>
      <text x="374.5845" y="464.6393" clip-path="url(#clipPath2)" font-family="sans-serif" stroke="none" stroke-width="1" xml:space="preserve">R1</text>
      <text x="369.2496" y="447.9899" clip-path="url(#clipPath2)" font-family="sans-serif" stroke="none" stroke-width="1" xml:space="preserve">Core</text>
      <text x="356.5699" y="481.2887" clip-path="url(#clipPath2)" font-family="sans-serif" stroke="none" stroke-width="1" xml:space="preserve">ASR1004</text>
    </g>
    <g fill="white" text-rendering="geometricPrecision" shape-rendering="geometricPrecision" transform="matrix(1,0,0,1,-307,-414)" stroke="white">
      <rect x="632.2998" y="429.9254" clip-path="url(#clipPath2)" width="120" rx="4" ry="4" height="60" stroke="none"/>
    </g>
    <g text-rendering="geometricPrecision" stroke-miterlimit="1.45" stroke-width="3" shape-rendering="geometricPrecision" transform="matrix(1,0,0,1,-307,-414)" stroke-linecap="butt">
      <rect x="632.2998" y="429.9254" clip-path="url(#clipPath2)" fill="none" width="120" rx="4" ry="4" height="60"/>
      <text x="684.6299" y="464.6393" clip-path="url(#clipPath2)" font-family="sans-serif" stroke="none" stroke-width="1" xml:space="preserve">R2</text>
      <text x="678.2872" y="447.9899" clip-path="url(#clipPath2)" font-family="sans-serif" stroke="none" stroke-width="1" xml:space="preserve">Edge</text>
      <text x="673.2891" y="481.2887" clip-path="url(#clipPath2)" font-family="sans-serif" stroke="none" stroke-width="1" xml:space="preserve">MX240</text>
      <path fill="none" d="M442.2425 459.9254 L632.319 459.9254" stroke-width="1" clip-path="url(#clipPath2)"/>
      <rect x="527.2791" y="450.5749" clip-path="url(#clipPath2)" fill="white" width="19.9961" height="18.7012" stroke="none" stroke-width="1"/>
      <text x="529.2791" y="464.6393" clip-path="url(#clipPath2)" font-family="sans-serif" stroke="none" stroke-width="1" xml:space="preserve">DF</text>
      <rect x="447.2545" y="450.5749" clip-path="url(#clipPath2)" fill="white" width="32.6816" height="18.7012" stroke="none" stroke-width="1"/>
      <text x="449.2545" y="464.6393" clip-path="url(#clipPath2)" font-family="sans-serif" stroke="none" stroke-width="1" xml:space="preserve">Gi0/1</text>
      <rect x="579.2666" y="450.5749" clip-path="url(#clipPath2)" fill="white" width="48.0332" height="18.7012" stroke="none" stroke-width="1"/>
      <text x="581.2667" y="464.6393" clip-path="url(#clipPath2)" font-family="sans-serif" stroke="none" stroke-width="1" xml:space="preserve">ge-0/1/2</text>
    </g>
  </g>
</svg>
