<?xml version="1.0" encoding="UTF-8"?><svg xmlns="http://www.w3.org/2000/svg" xmlns:xlink="http://www.w3.org/1999/xlink" fill-opacity="1" color-rendering="auto" color-interpolation="auto" text-rendering="auto" stroke="black" stroke-linecap="square" width="650" stroke-miterlimit="10" shape-rendering="auto" stroke-opacity="1" fill="black" stroke-dasharray="none" font-weight="normal" stroke-width="1" height="513" font-family="'Dialog'" font-style="normal" stroke-linejoin="miter" font-size="12px" stroke-dashoffset="0" image-rendering="auto">
  <!--Generated by ySVG 2.5-->
  <defs id="genericDefs"/>
  <g>
    <defs id="defs1">
      <clipPath clipPathUnits="userSpaceOnUse" id="clipPath1">
        <path d="M0 0 L650 0 L650 513 L0 513 L0 0 Z"/>
      </clipPath>
      <clipPath clipPathUnits="userSpaceOnUse" id="clipPath2">
        <path d="M20 -15 L670 -15 L670 498 L20 498 L20 -15 Z"/>
      </clipPath>
      <clipPath clipPathUnits="userSpaceOnUse" id="clipPath3">
        <path d="M433 -345.6494 L433 304.3506 L-80 304.3506 L-80 -345.6494 L433 -345.6494 Z"/>
      </clipPath>
      <clipPath clipPathUnits="userSpaceOnUse" id="clipPath4">
        <path d="M330.8555 -345.6494 L330.8555 304.3506 L-182.1445 304.3506 L-182.1445 -345.6494 L330.8555 -345.6494 Z"/>
      </clipPath>
      <clipPath clipPathUnits="userSpaceOnUse" id="clipPath5">
        <path d="M221.5 -285.6494 L221.5 364.3506 L-291.5 364.3506 L-291.5 -285.6494 L221.5 -285.6494 Z"/>
      </clipPath>
      <clipPath clipPathUnits="userSpaceOnUse" id="clipPath6">
        <path d="M119.3555 -195.6494 L119.3555 454.3506 L-393.6445 454.3506 L-393.6445 -195.6494 L119.3555 -195.6494 Z"/>
      </clipPath>
      <clipPath clipPathUnits="userSpaceOnUse" id="clipPath7">
        <path d="M330.8555 -285.6494 L330.8555 364.3506 L-182.1445 364.3506 L-182.1445 -285.6494 L330.8555 -285.6494 Z"/>
      </clipPath>
      <clipPath clipPathUnits="userSpaceOnUse" id="clipPath8">
        <path d="M433 -195.6494 L433 454.3506 L-80 454.3506 L-80 -195.6494 L433 -195.6494 Z"/>
      </clipPath>
      <clipPath clipPathUnits="userSpaceOnUse" id="clipPath9">
        <path d="M221.5 -345.6494 L221.5 304.3506 L-291.5 304.3506 L-291.5 -345.6494 L221.5 -345.6494 Z"/>
      </clipPath>
      <clipPath clipPathUnits="userSpaceOnUse" id="clipPath10">
        <path d="M126.0293 -345.6494 L126.0293 304.3506 L-386.9707 304.3506 L-386.9707 -345.6494 L126.0293 -345.6494 Z"/>
      </clipPath>
    </defs>
    <g fill="white" text-rendering="geometricPrecision" shape-rendering="geometricPrecision" transform="translate(-20,15)" stroke="white">
      <rect x="20" width="650" height="513" y="-15" clip-path="url(#clipPath2)" stroke="none"/>
    </g>
    <g fill="white" text-rendering="geometricPrecision" shape-rendering="geometricPrecision" transform="matrix(1,0,0,1,-20,15)" stroke="white">
      <rect x="285" y="211.5" clip-path="url(#clipPath2)" width="120" rx="4" ry="4" height="60" stroke="none"/>
    </g>
    <g text-rendering="geometricPrecision" stroke-miterlimit="1.45" stroke-width="3" shape-rendering="geometricPrecision" transform="matrix(1,0,0,1,-20,15)" stroke-linecap="butt">
      <rect x="285" y="211.5" clip-path="url(#clipPath2)" fill="none" width="120" rx="4" ry="4" height="60"/>
      <text x="331.998" y="246.2139" clip-path="url(#clipPath2)" font-family="sans-serif" stroke="none" stroke-width="1" xml:space="preserve">SW1</text>
      <text x="327.665" y="229.5645" clip-path="url(#clipPath2)" font-family="sans-serif" stroke="none" stroke-width="1" xml:space="preserve">CORE</text>
      <text x="326.6514" y="262.8633" clip-path="url(#clipPath2)" font-family="sans-serif" stroke="none" stroke-width="1" xml:space="preserve">1,1,1,1</text>
    </g>
    <g fill="white" text-rendering="geometricPrecision" shape-rendering="geometricPrecision" transform="matrix(1,0,0,1,-20,15)" stroke="white">
      <rect x="535" y="211.5" clip-path="url(#clipPath2)" width="120" rx="4" ry="4" height="60" stroke="none"/>
    </g>
    <g text-rendering="geometricPrecision" stroke-miterlimit="1.45" stroke-width="3" shape-rendering="geometricPrecision" transform="matrix(1,0,0,1,-20,15)" stroke-linecap="butt">
      <rect x="535" y="211.5" clip-path="url(#clipPath2)" fill="none" width="120" rx="4" ry="4" height="60"/>
      <text x="587.3301" y="246.2139" clip-path="url(#clipPath2)" font-family="sans-serif" stroke="none" stroke-width="1" xml:space="preserve">R1</text>
    </g>
    <g fill="white" text-rendering="geometricPrecision" shape-rendering="geometricPrecision" transform="matrix(1,0,0,1,-20,15)" stroke="white">
      <rect x="35" y="211.5" clip-path="url(#clipPath2)" width="120" rx="4" ry="4" height="60" stroke="none"/>
    </g>
    <g text-rendering="geometricPrecision" stroke-miterlimit="1.45" stroke-width="3" shape-rendering="geometricPrecision" transform="matrix(1,0,0,1,-20,15)" stroke-linecap="butt">
      <rect x="35" y="211.5" clip-path="url(#clipPath2)" fill="none" width="120" rx="4" ry="4" height="60"/>
      <text x="87.3301" y="246.2139" clip-path="url(#clipPath2)" font-family="sans-serif" stroke="none" stroke-width="1" xml:space="preserve">R2</text>
      <text x="76.332" y="229.5645" clip-path="url(#clipPath2)" font-family="sans-serif" stroke="none" stroke-width="1" xml:space="preserve">DC-PE</text>
    </g>
    <g fill="white" text-rendering="geometricPrecision" shape-rendering="geometricPrecision" transform="matrix(1,0,0,1,-20,15)" stroke="white">
      <rect x="315" y="423" clip-path="url(#clipPath2)" width="120" rx="4" ry="4" height="60" stroke="none"/>
    </g>
    <g text-rendering="geometricPrecision" stroke-miterlimit="1.45" stroke-width="3" shape-rendering="geometricPrecision" transform="matrix(1,0,0,1,-20,15)" stroke-linecap="butt">
      <rect x="315" y="423" clip-path="url(#clipPath2)" fill="none" width="120" rx="4" ry="4" height="60"/>
      <text x="367.3301" y="457.7139" clip-path="url(#clipPath2)" font-family="sans-serif" stroke="none" stroke-width="1" xml:space="preserve">R3</text>
      <text x="356.6514" y="474.3633" clip-path="url(#clipPath2)" font-family="sans-serif" stroke="none" stroke-width="1" xml:space="preserve">1.1.1.3</text>
    </g>
    <g fill="white" text-rendering="geometricPrecision" shape-rendering="geometricPrecision" transform="matrix(1,0,0,1,-20,15)" stroke="white">
      <rect x="165" y="0" clip-path="url(#clipPath2)" width="120" rx="4" ry="4" height="60" stroke="none"/>
    </g>
    <g text-rendering="geometricPrecision" stroke-miterlimit="1.45" stroke-width="3" shape-rendering="geometricPrecision" transform="matrix(1,0,0,1,-20,15)" stroke-linecap="butt">
      <rect x="165" y="0" clip-path="url(#clipPath2)" fill="none" width="120" rx="4" ry="4" height="60"/>
      <text x="217.3301" y="34.7139" clip-path="url(#clipPath2)" font-family="sans-serif" stroke="none" stroke-width="1" xml:space="preserve">R4</text>
    </g>
    <g fill="white" text-rendering="geometricPrecision" shape-rendering="geometricPrecision" transform="matrix(1,0,0,1,-20,15)" stroke="white">
      <rect x="165" y="423" clip-path="url(#clipPath2)" width="120" rx="4" ry="4" height="60" stroke="none"/>
    </g>
    <g text-rendering="geometricPrecision" stroke-miterlimit="1.45" stroke-width="3" shape-rendering="geometricPrecision" transform="matrix(1,0,0,1,-20,15)" stroke-linecap="butt">
      <rect x="165" y="423" clip-path="url(#clipPath2)" fill="none" width="120" rx="4" ry="4" height="60"/>
      <text x="217.3301" y="457.7139" clip-path="url(#clipPath2)" font-family="sans-serif" stroke="none" stroke-width="1" xml:space="preserve">R5</text>
    </g>
    <g fill="white" text-rendering="geometricPrecision" shape-rendering="geometricPrecision" transform="matrix(1,0,0,1,-20,15)" stroke="white">
      <rect x="315" y="0" clip-path="url(#clipPath2)" width="120" rx="4" ry="4" height="60" stroke="none"/>
    </g>
    <g text-rendering="geometricPrecision" stroke-miterlimit="1.45" stroke-width="3" shape-rendering="geometricPrecision" transform="matrix(1,0,0,1,-20,15)" stroke-linecap="butt">
      <rect x="315" y="0" clip-path="url(#clipPath2)" fill="none" width="120" rx="4" ry="4" height="60"/>
      <text x="367.3301" y="34.7139" clip-path="url(#clipPath2)" font-family="sans-serif" stroke="none" stroke-width="1" xml:space="preserve">R6</text>
      <path fill="none" d="M405 241.5 L534.9683 241.5" stroke-width="1" clip-path="url(#clipPath2)"/>
      <rect x="410" y="232.1494" clip-path="url(#clipPath2)" fill="white" width="39.3555" height="18.7012" stroke="none" stroke-width="1"/>
      <text x="412" y="246.2139" clip-path="url(#clipPath2)" font-family="sans-serif" stroke="none" stroke-width="1" xml:space="preserve">Gig0/0</text>
      <rect x="490.6445" y="232.1494" clip-path="url(#clipPath2)" fill="white" width="39.3555" height="18.7012" stroke="none" stroke-width="1"/>
      <text x="492.6445" y="246.2139" clip-path="url(#clipPath2)" font-family="sans-serif" stroke="none" stroke-width="1" xml:space="preserve">Gig0/1</text>
      <path fill="none" d="M155 241.5 L284.9683 241.5" stroke-width="1" clip-path="url(#clipPath2)"/>
      <rect x="160" y="232.1494" clip-path="url(#clipPath2)" fill="white" width="39.3555" height="18.7012" stroke="none" stroke-width="1"/>
      <text x="162" y="246.2139" clip-path="url(#clipPath2)" font-family="sans-serif" stroke="none" stroke-width="1" xml:space="preserve">Gig0/0</text>
      <rect x="240.6445" y="232.1494" clip-path="url(#clipPath2)" fill="white" width="39.3555" height="18.7012" stroke="none" stroke-width="1"/>
      <text x="242.6445" y="246.2139" clip-path="url(#clipPath2)" font-family="sans-serif" stroke="none" stroke-width="1" xml:space="preserve">Gig0/2</text>
      <path fill="none" d="M375 422.963 L375 271.5" stroke-width="1" clip-path="url(#clipPath2)"/>
    </g>
    <g stroke-linecap="butt" transform="matrix(0,-1,1,0,345.6494,433)" fill="white" text-rendering="geometricPrecision" shape-rendering="geometricPrecision" stroke="white" stroke-miterlimit="1.45">
      <rect x="0" width="39.3555" height="18.7012" y="0" clip-path="url(#clipPath3)" stroke="none"/>
      <text x="2" y="14.0645" clip-path="url(#clipPath3)" fill="black" font-family="sans-serif" stroke="none" xml:space="preserve">Gig0/0</text>
    </g>
    <g stroke-linecap="butt" transform="matrix(0,-1,1,0,345.6494,330.8555)" fill="white" text-rendering="geometricPrecision" shape-rendering="geometricPrecision" stroke="white" stroke-miterlimit="1.45">
      <rect x="0" width="39.3555" height="18.7012" y="0" clip-path="url(#clipPath4)" stroke="none"/>
      <text x="2" y="14.0645" clip-path="url(#clipPath4)" fill="black" font-family="sans-serif" stroke="none" xml:space="preserve">Gig0/3</text>
    </g>
    <g text-rendering="geometricPrecision" stroke-miterlimit="1.45" shape-rendering="geometricPrecision" transform="matrix(1,0,0,1,-20,15)" stroke-linecap="butt">
      <path fill="none" d="M315 211.4507 L315 161 L225 110.5 L225 60" clip-path="url(#clipPath2)"/>
    </g>
    <g stroke-linecap="butt" transform="matrix(0,-1,1,0,285.6494,221.5)" fill="white" text-rendering="geometricPrecision" shape-rendering="geometricPrecision" stroke="white" stroke-miterlimit="1.45">
      <rect x="0" width="39.3555" height="18.7012" y="0" clip-path="url(#clipPath5)" stroke="none"/>
      <text x="2" y="14.0645" clip-path="url(#clipPath5)" fill="black" font-family="sans-serif" stroke="none" xml:space="preserve">Gig0/4</text>
    </g>
    <g stroke-linecap="butt" transform="matrix(0,-1,1,0,195.6494,119.3555)" fill="white" text-rendering="geometricPrecision" shape-rendering="geometricPrecision" stroke="white" stroke-miterlimit="1.45">
      <rect x="0" width="39.3555" height="18.7012" y="0" clip-path="url(#clipPath6)" stroke="none"/>
      <text x="2" y="14.0645" clip-path="url(#clipPath6)" fill="black" font-family="sans-serif" stroke="none" xml:space="preserve">Gig0/1</text>
    </g>
    <g text-rendering="geometricPrecision" stroke-miterlimit="1.45" shape-rendering="geometricPrecision" transform="matrix(1,0,0,1,-20,15)" stroke-linecap="butt">
      <path fill="none" d="M315 271.5 L315 322 L225 372.5 L225 422.9507" clip-path="url(#clipPath2)"/>
    </g>
    <g stroke-linecap="butt" transform="matrix(0,-1,1,0,285.6494,330.8555)" fill="white" text-rendering="geometricPrecision" shape-rendering="geometricPrecision" stroke="white" stroke-miterlimit="1.45">
      <rect x="0" width="39.3555" height="18.7012" y="0" clip-path="url(#clipPath7)" stroke="none"/>
      <text x="2" y="14.0645" clip-path="url(#clipPath7)" fill="black" font-family="sans-serif" stroke="none" xml:space="preserve">Gig0/5</text>
    </g>
    <g stroke-linecap="butt" transform="matrix(0,-1,1,0,195.6494,433)" fill="white" text-rendering="geometricPrecision" shape-rendering="geometricPrecision" stroke="white" stroke-miterlimit="1.45">
      <rect x="0" width="39.3555" height="18.7012" y="0" clip-path="url(#clipPath8)" stroke="none"/>
      <text x="2" y="14.0645" clip-path="url(#clipPath8)" fill="black" font-family="sans-serif" stroke="none" xml:space="preserve">Gig0/7</text>
    </g>
    <g text-rendering="geometricPrecision" stroke-miterlimit="1.45" shape-rendering="geometricPrecision" transform="matrix(1,0,0,1,-20,15)" stroke-linecap="butt">
      <path fill="none" d="M375 211.463 L375 60" clip-path="url(#clipPath2)"/>
    </g>
    <g stroke-linecap="butt" transform="matrix(0,-1,1,0,345.6494,221.5)" fill="white" text-rendering="geometricPrecision" shape-rendering="geometricPrecision" stroke="white" stroke-miterlimit="1.45">
      <rect x="0" width="39.3555" height="18.7012" y="0" clip-path="url(#clipPath9)" stroke="none"/>
      <text x="2" y="14.0645" clip-path="url(#clipPath9)" fill="black" font-family="sans-serif" stroke="none" xml:space="preserve">Gig0/6</text>
    </g>
    <g stroke-linecap="butt" transform="matrix(0,-1,1,0,345.6494,126.0293)" fill="white" text-rendering="geometricPrecision" shape-rendering="geometricPrecision" stroke="white" stroke-miterlimit="1.45">
      <rect x="0" width="46.0293" height="18.7012" y="0" clip-path="url(#clipPath10)" stroke="none"/>
      <text x="2" y="14.0645" clip-path="url(#clipPath10)" fill="black" font-family="sans-serif" stroke="none" xml:space="preserve">Gig0/11</text>
    </g>
  </g>
</svg>
