<?xml version="1.0" encoding="UTF-8"?><svg xmlns="http://www.w3.org/2000/svg" xmlns:xlink="http://www.w3.org/1999/xlink" fill-opacity="1" color-rendering="auto" color-interpolation="auto" text-rendering="auto" stroke="black" stroke-linecap="square" width="180" stroke-miterlimit="10" shape-rendering="auto" stroke-opacity="1" fill="black" stroke-dasharray="none" font-weight="normal" stroke-width="1" height="119" font-family="'Dialog'" font-style="normal" stroke-linejoin="miter" font-size="12px" stroke-dashoffset="0" image-rendering="auto">
  <!--Generated by ySVG 2.5-->
  <defs id="genericDefs"/>
  <g>
    <defs id="defs1">
      <clipPath clipPathUnits="userSpaceOnUse" id="clipPath1">
        <path d="M0 0 L180 0 L180 119 L0 119 L0 0 Z"/>
      </clipPath>
      <clipPath clipPathUnits="userSpaceOnUse" id="clipPath2">
        <path d="M182 170 L362 170 L362 289 L182 289 L182 170 Z"/>
      </clipPath>
      <clipPath clipPathUnits="userSpaceOnUse" id="clipPath3">
        <path d="M506.787 362.5468 L616.7036 362.5468 L616.7036 435.2139 L506.787 435.2139 L506.787 362.5468 Z"/>
      </clipPath>
    </defs>
    <g text-rendering="geometricPrecision" shape-rendering="geometricPrecision" transform="matrix(1.6376,0,0,1.6376,-829.9169,-593.7085)">
      <g clip-path="url(#clipPath3)">
        <svg xmlns:ev="http://www.w3.org/2001/xml-events" xmlns:v="http://schemas.microsoft.com/visio/2003/SVGExtensions/" xml:space="preserve" opacity="1" writing-mode="lr-tb" stop-color="rgb(0, 0, 0)" shape-rendering="auto" glyph-orientation-horizontal="0deg" color-profile="auto" lighting-color="rgb(255, 255, 255)" color="rgb(0, 0, 0)" font-weight="400" alignment-baseline="auto" font-style="normal" class="st2" color-interpolation-filters="sRGB" text-anchor="start" stroke-linecap="square" color-interpolation="srgb" font-variant="normal" word-spacing="normal" fill-opacity="1" text-rendering="auto" clip-path="none" text-decoration="none" letter-spacing="normal" viewBox="0 0 841.89 595.276" glyph-orientation-vertical="auto" display="inline" font-size-adjust="none" overflow="visible" fill="none" font-stretch="normal" stroke-dasharray="none" stroke-miterlimit="3" stop-opacity="1" color-rendering="auto" font-size="12px" pointer-events="visiblepainted" mask="none" direction="ltr" baseline-shift="baseline" enable-background="accumulate" fill-rule="evenodd" image-rendering="auto" stroke-dashoffset="0" width="11.6929in" marker-end="none" clip="auto" cursor="auto" stroke="none" filter="none" visibility="visible" kerning="auto" stroke-width="1" font-family="&quot;Arial&quot;,&quot;Helvetica&quot;,sans-serif" flood-opacity="1" clip-rule="nonzero" src="none" height="8.26772in" unicode-bidi="normal" stroke-linejoin="miter" stroke-opacity="1" flood-color="rgb(0, 0, 0)" dominant-baseline="auto" marker-start="none" marker-mid="none">
	

	<style type="text/css">
	<![CDATA[
		.st1 {fill:#ffffff;stroke:#000000;stroke-linecap:round;stroke-linejoin:round;stroke-width:0.24}
		.st2 {fill:none;fill-rule:evenodd;font-size:12px;overflow:visible;stroke-linecap:square;stroke-miterlimit:3}
	]]>
	</style>

	<g v:mID="0" v:groupContext="foregroundPage" v:index="1">
		<title>Page-1</title>
		
		<g v:mID="1" id="svg1.shape1-1" transform="translate(387.573,-279.67)" v:groupContext="shape">
			<title>Cloud.70</title>
			
			
			<path class="st1" d="M1.47 577.35 A2.80458 2.21947 0 0 1 2.42 573.27 A3.81187 3.01661 0 0 1 6.03 568.69 A4.37699 3.46384 0 0 1 12.22        564.77 A2.98711 2.36392 0 0 1 17.61 562.74 A3.28012 2.5958 0 0 1 23.38 561.39 A6.4807 5.12866 0 0 1 32.39        560.53 A1.93619 1.53225 0 0 1 36.17 560.58 A2.07957 1.47381 9.91 0 1 40.19 560.52 A1.95891 1.03483 5.08        0 1 43.65 561.39 A3.64251 1.93506 7.14 0 1 50.68 562.75 A2.08747 1.22854 156.64 0 1 53.19 564.07 A3.72085        2.94459 0 0 1 59.15 567.25 A4.09169 2.16932 6.39 0 1 61.55 569.99 A5.25813 2.76205 178.44 0 1 65.11 574.54        A3.04029 1.59609 0 0 1 65.56 577.35 A1.51741 1.20084 0 1 1 65.31 579.43 A3.26491 2.58376 0 0 1 63.17 583.72        A2.15394 1.35212 179.14 1 1 60.99 586 A4.37699 3.46384 0 0 1 54.8 589.92 A3.42246 1.79672 0 0 1 49.41 591.95        A2.721 2.15333 0 0 1 44.19 593.12 A2.83447 1.71935 3.13 0 1 38.78 593.94 A2.68339 1.40873 0 0 1 33.51 594.17        A3.43215 1.80181 0 0 1 26.98 593.82 A3.10536 1.65213 7.45 0 1 21.49 592.07 A2.69896 1.23098 6.61 1 1 16.67        590.79 A3.20948 2.5399 0 0 1 12.15 587.86 A4.38055 3.46665 0 0 1 6.81 587.86 A7.67366 4.04923 4.6 0 1 3.85        583.72 A3.0302 2.39802 0 0 1 1.08 579.57 A2.96046 1.57356 7.29 0 1 1.47 577.35 Z"/>
		</g>
	</g>
</svg>
      </g>
    </g>
  </g>
</svg>
