<?xml version="1.0" encoding="UTF-8"?><svg xmlns="http://www.w3.org/2000/svg" xmlns:xlink="http://www.w3.org/1999/xlink" fill-opacity="1" color-rendering="auto" color-interpolation="auto" text-rendering="auto" stroke="black" stroke-linecap="square" width="84" stroke-miterlimit="10" shape-rendering="auto" stroke-opacity="1" fill="black" stroke-dasharray="none" font-weight="normal" stroke-width="1" height="77" font-family="'Dialog'" font-style="normal" stroke-linejoin="miter" font-size="12px" stroke-dashoffset="0" image-rendering="auto">
  <!--Generated by ySVG 2.5-->
  <defs id="genericDefs"/>
  <g>
    <defs id="defs1">
      <clipPath clipPathUnits="userSpaceOnUse" id="clipPath1">
        <path d="M0 0 L84 0 L84 77 L0 77 L0 0 Z"/>
      </clipPath>
      <clipPath clipPathUnits="userSpaceOnUse" id="clipPath2">
        <path d="M235 197 L319 197 L319 274 L235 274 L235 197 Z"/>
      </clipPath>
      <clipPath clipPathUnits="userSpaceOnUse" id="clipPath3">
        <path d="M-13.0872 -14.9913 L70.9128 -14.9913 L70.9128 62.0087 L-13.0872 62.0087 L-13.0872 -14.9913 Z"/>
      </clipPath>
    </defs>
    <g text-rendering="geometricPrecision" shape-rendering="geometricPrecision" transform="matrix(1,0,0,1,13.0872,14.9913)">
      <g clip-path="url(#clipPath3)">
        <svg opacity="1" writing-mode="lr-tb" stop-color="rgb(0, 0, 0)" shape-rendering="auto" glyph-orientation-horizontal="0deg" color-profile="auto" lighting-color="rgb(255, 255, 255)" color="rgb(0, 0, 0)" font-weight="400" alignment-baseline="auto" font-style="normal" color-interpolation-filters="linearrgb" text-anchor="start" stroke-linecap="butt" color-interpolation="srgb" font-variant="normal" word-spacing="normal" fill-opacity="1" text-rendering="auto" clip-path="none" text-decoration="none" letter-spacing="normal" viewBox="4752 6333 733 530" glyph-orientation-vertical="auto" display="inline" font-size-adjust="none" fill="rgb(0, 0, 0)" overflow="visible" font-stretch="normal" stroke-dasharray="none" stroke-miterlimit="4" stop-opacity="1" color-rendering="auto" font-size="12" mask="none" direction="ltr" baseline-shift="baseline" pointer-events="visiblepainted" enable-background="accumulate" fill-rule="nonzero" image-rendering="auto" stroke-dashoffset="0" width="0.6in" marker-end="none" clip="auto" cursor="auto" stroke="none" filter="none" visibility="visible" kerning="auto" stroke-width="1" font-family="&quot;Arial&quot;,&quot;Helvetica&quot;,sans-serif" flood-opacity="1" clip-rule="nonzero" src="none" height="0.4in" unicode-bidi="normal" stroke-linejoin="miter" stroke-opacity="1" flood-color="rgb(0, 0, 0)" dominant-baseline="auto" marker-start="none" marker-mid="none">
<g style="stroke-width:.025in; fill:none">
<!-- Line -->
<!--  polyline  -->
<polyline style="stroke:#00a5d4;stroke-width:0; stroke-linejoin:miter; stroke-linecap:butt; fill:#00a5d4; " points="4764,6851 5400,6851 5400,6433 4764,6433 4764,6851 "/>
<!-- Line -->
<!--  polyline  -->
<polyline style="stroke:#ffffff;stroke-width:7; stroke-linejoin:miter; stroke-linecap:butt; " points="4764,6851 5400,6851 5400,6433 4764,6433 4764,6851 "/>
<!-- Line -->
<!--  polyline  -->
<polyline style="stroke:#00a5d4;stroke-width:0; stroke-linejoin:miter; stroke-linecap:butt; fill:#00a5d4; " points="5473,6744 5400,6851 5400,6433 5473,6345 5473,6744 "/>
<!-- Line -->
<!--  polyline  -->
<polyline style="stroke:#ffffff;stroke-width:7; stroke-linejoin:miter; stroke-linecap:butt; " points="5473,6744 5400,6851 5400,6433 5473,6345 5473,6744 "/>
<!-- Line -->
<!--  polyline  -->
<polyline style="stroke:#00a5d4;stroke-width:0; stroke-linejoin:miter; stroke-linecap:butt; fill:#00a5d4; " points="4874,6345 5473,6345 5400,6433 4764,6433 4874,6345 "/>
<!-- Line -->
<!--  polyline  -->
<polyline style="stroke:#ffffff;stroke-width:7; stroke-linejoin:miter; stroke-linecap:butt; " points="4874,6345 5473,6345 5400,6433 4764,6433 4874,6345 "/>
<!-- Line -->
<!--  polyline  -->
<polyline style="stroke:#ffffff;stroke-width:0; stroke-linejoin:miter; stroke-linecap:butt; fill:#ffffff; " points="5312,6649 5206,6649 5206,6632 5312,6632 5312,6606 5374,6641 5312,6676 5312,6649 "/>
<!-- Line -->
<!--  polyline  -->
<polyline style="stroke:#ffffff;stroke-width:0; stroke-linejoin:miter; stroke-linecap:butt; fill:#ffffff; " points="4886,6649 4780,6649 4780,6632 4886,6632 4886,6606 4948,6641 4886,6676 4886,6649 "/>
<!-- Line -->
<!--  polyline  -->
<polyline style="stroke:#ffffff;stroke-width:0; stroke-linejoin:miter; stroke-linecap:butt; fill:#ffffff; " points="5294,6537 5205,6595 5195,6581 5285,6523 5270,6500 5341,6496 5308,6559 5294,6537 "/>
<!-- Line -->
<!--  polyline  -->
<polyline style="stroke:#ffffff;stroke-width:0; stroke-linejoin:miter; stroke-linecap:butt; fill:#ffffff; " points="5294,6746 5205,6688 5195,6702 5285,6760 5270,6782 5341,6786 5308,6723 5294,6746 "/>
<!-- Line -->
<!--  spline  -->
<polyline style="stroke:#00a5d4;stroke-width:0; stroke-linejoin:bevel; stroke-linecap:butt; fill:#00a5d4; " points="5183,6639 5183,6641 5181,6649 5180,6662 5178,6670 5178,6672 5178,6673 5176,6677 5173,6683 5169,6691 5163,6701 5156,6709 5153,6713 5152,6714 5148,6717 5140,6723 5131,6729 5127,6731 5126,6732 5121,6734 5111,6738 5099,6741 5090,6743 5083,6744 5079,6744 5078,6744 5076,6744 5068,6742 5055,6740 5047,6738 5045,6738 5044,6738 5040,6736 5034,6733 5026,6729 5016,6723 5008,6717 5004,6714 5003,6713 5000,6709 4993,6701 4987,6692 4984,6688 4984,6687 4982,6682 4978,6672 4975,6660 4974,6651 4973,6644 4973,6640 4973,6639 4973,6637 4975,6629 4976,6615 4978,6607 4978,6605 4978,6604 4980,6600 4983,6594 4987,6587 4993,6577 5000,6569 5003,6565 5004,6564 5008,6561 5016,6554 5025,6548 5029,6545 5030,6545 5035,6543 5045,6539 5057,6536 5066,6535 5073,6534 5077,6534 5078,6534 5080,6534 5088,6536 5101,6537 5109,6539 5111,6539 5112,6539 5116,6541 5122,6544 5130,6548 5140,6554 5148,6561 5152,6564 5153,6565 5156,6569 5163,6577 5169,6586 5172,6589 5172,6591 5174,6595 5178,6605 5181,6617 5182,6626 5183,6633 5183,6638 5183,6639 "/>
<!-- Line -->
<!--  spline  -->
<polyline style="stroke:#ffffff;stroke-width:15; stroke-linejoin:bevel; stroke-linecap:butt; " points="5183,6639 5183,6641 5181,6649 5180,6662 5178,6670 5178,6672 5178,6673 5176,6677 5173,6683 5169,6691 5163,6701 5156,6709 5153,6713 5152,6714 5148,6717 5140,6723 5131,6729 5127,6731 5126,6732 5121,6734 5111,6738 5099,6741 5090,6743 5083,6744 5079,6744 5078,6744 5076,6744 5068,6742 5055,6740 5047,6738 5045,6738 5044,6738 5040,6736 5034,6733 5026,6729 5016,6723 5008,6717 5004,6714 5003,6713 5000,6709 4993,6701 4987,6692 4984,6688 4984,6687 4982,6682 4978,6672 4975,6660 4974,6651 4973,6644 4973,6640 4973,6639 4973,6637 4975,6629 4976,6615 4978,6607 4978,6605 4978,6604 4980,6600 4983,6594 4987,6587 4993,6577 5000,6569 5003,6565 5004,6564 5008,6561 5016,6554 5025,6548 5029,6545 5030,6545 5035,6543 5045,6539 5057,6536 5066,6535 5073,6534 5077,6534 5078,6534 5080,6534 5088,6536 5101,6537 5109,6539 5111,6539 5112,6539 5116,6541 5122,6544 5130,6548 5140,6554 5148,6561 5152,6564 5153,6565 5156,6569 5163,6577 5169,6586 5172,6589 5172,6591 5174,6595 5178,6605 5181,6617 5182,6626 5183,6633 5183,6638 5183,6639 "/>
</g>
</svg>
      </g>
    </g>
  </g>
</svg>
