<?xml version="1.0" encoding="UTF-8" standalone="no"?>
<!DOCTYPE svg PUBLIC "-//W3C//DTD SVG 1.0//EN" "http://www.w3.org/TR/2001/REC-SVG-20010904/DTD/svg10.dtd">
<!-- Generated by Microsoft Visio 11.0, SVG Export, v1.0 router2.svg Page-2 -->
<svg xmlns="http://www.w3.org/2000/svg" xmlns:xlink="http://www.w3.org/1999/xlink" xmlns:ev="http://www.w3.org/2001/xml-events"
		xmlns:v="http://schemas.microsoft.com/visio/2003/SVGExtensions/" width="16.5354in" height="11.6929in"
		viewBox="0 0 1190.55 841.89" xml:space="preserve" color-interpolation-filters="sRGB" class="st7">
	<v:documentProperties v:langID="3081" v:metric="true" v:viewMarkup="false"/>

	<style type="text/css">
	<![CDATA[
		.st1 {fill:#0078aa;stroke:none;stroke-linecap:round;stroke-linejoin:round;stroke-width:0.75}
		.st2 {fill:#0078aa;stroke:#aae6ff;stroke-linecap:round;stroke-linejoin:round;stroke-width:0.473867}
		.st3 {fill:#00b4ff;stroke:#aae6ff;stroke-linecap:round;stroke-linejoin:round;stroke-width:0.473867}
		.st4 {fill:#000000;stroke:none;stroke-linecap:round;stroke-linejoin:round;stroke-width:0.75}
		.st5 {fill:#ffffff;stroke:none;stroke-linecap:round;stroke-linejoin:round;stroke-width:0.75}
		.st6 {stroke:#aae6ff;stroke-linecap:round;stroke-linejoin:round;stroke-width:0.473867}
		.st7 {fill:none;fill-rule:evenodd;font-size:12px;overflow:visible;stroke-linecap:square;stroke-miterlimit:3}
	]]>
	</style>

	<g v:mID="4" v:index="2" v:groupContext="foregroundPage">
		<title>Page-2</title>
		<v:pageProperties v:drawingScale="0.0393701" v:pageScale="0.0393701" v:drawingUnits="24" v:shadowOffsetX="8.50394"
				v:shadowOffsetY="-8.50394"/>
		<g id="group2-1" transform="translate(1.27559,-794.835)" v:mID="2" v:groupContext="group">
			<title>Sheet.2</title>
			<g id="shape4-2" v:mID="4" v:groupContext="shape" transform="translate(1.59872E-014,-12.3918)">
				<title>Sheet.4</title>
				<path d="M0 822.83 L0 841.89 L76.54 841.89 L76.54 822.83 L0 822.83 L0 822.83 Z" class="st1"/>
			</g>
			<g id="shape3-4" v:mID="3" v:groupContext="shape">
				<title>Sheet.3</title>
				<ellipse cx="38.4094" cy="828.783" rx="38.4094" ry="13.1067" class="st2"/>
			</g>
			<g id="shape5-6" v:mID="5" v:groupContext="shape" transform="translate(9.59233E-014,-12.9064)">
				<title>Sheet.5</title>
				<path d="M0 823.34 L0 841.89 L76.82 841.89 L76.82 823.34 L0 823.34 L0 823.34 Z" class="st1"/>
			</g>
			<g id="shape6-8" v:mID="6" v:groupContext="shape" transform="translate(2.39808E-014,-19.0643)">
				<title>Sheet.6</title>
				<ellipse cx="38.3969" cy="828.783" rx="38.3969" ry="13.1067" class="st3"/>
			</g>
			<g id="shape7-10" v:mID="7" v:groupContext="shape" transform="translate(39.5747,-32.8859)">
				<title>Sheet.7</title>
				<path d="M0 839.98 L5.65 841.89 L19.32 836.17 L25.44 838.08 L22.14 833.31 L6.12 833.31 L12.72 834.74 L0 839.98 L0
							 839.98 Z" class="st4"/>
			</g>
			<g id="shape8-12" v:mID="8" v:groupContext="shape" transform="translate(39.5747,-32.8859)">
				<title>Sheet.8</title>
				<path d="M0 839.98 L5.65 841.89 L19.32 836.17 L25.44 838.08 L22.14 833.31 L6.12 833.31 L12.72 834.74 L0 839.98 L0
							 839.98 Z" class="st4"/>
			</g>
			<g id="shape9-14" v:mID="9" v:groupContext="shape" transform="translate(11.7782,-22.4005)">
				<title>Sheet.9</title>
				<path d="M25.44 834.74 L19.79 832.83 L6.6 838.55 L0 836.65 L3.3 841.89 L19.79 841.89 L12.72 839.98 L25.44 834.74
							 L25.44 834.74 Z" class="st4"/>
			</g>
			<g id="shape10-16" v:mID="10" v:groupContext="shape" transform="translate(11.7782,-22.4005)">
				<title>Sheet.10</title>
				<path d="M25.44 834.74 L19.79 832.83 L6.6 838.55 L0 836.65 L3.3 841.89 L19.79 841.89 L12.72 839.98 L25.44 834.74
							 L25.44 834.74 Z" class="st4"/>
			</g>
			<g id="shape11-18" v:mID="11" v:groupContext="shape" transform="translate(13.1916,-33.3625)">
				<title>Sheet.11</title>
				<path d="M0 835.22 L5.65 833.31 L19.32 838.55 L25.44 837.12 L22.14 841.89 L6.12 841.89 L12.72 840.46 L0 835.22 L0
							 835.22 Z" class="st4"/>
			</g>
			<g id="shape12-20" v:mID="12" v:groupContext="shape" transform="translate(13.1916,-33.3625)">
				<title>Sheet.12</title>
				<path d="M0 835.22 L5.65 833.31 L19.32 838.55 L25.44 837.12 L22.14 841.89 L6.12 841.89 L12.72 840.46 L0 835.22 L0
							 835.22 Z" class="st4"/>
			</g>
			<g id="shape13-22" v:mID="13" v:groupContext="shape" transform="translate(38.6325,-21.9239)">
				<title>Sheet.13</title>
				<path d="M25.44 839.98 L19.79 841.89 L6.6 836.17 L0 838.08 L3.3 833.31 L19.79 833.31 L12.72 834.74 L25.44 839.98
							 L25.44 839.98 Z" class="st4"/>
			</g>
			<g id="shape14-24" v:mID="14" v:groupContext="shape" transform="translate(38.6325,-21.9239)">
				<title>Sheet.14</title>
				<path d="M25.44 839.98 L19.79 841.89 L6.6 836.17 L0 838.08 L3.3 833.31 L19.79 833.31 L12.72 834.74 L25.44 839.98
							 L25.44 839.98 Z" class="st4"/>
			</g>
			<g id="shape15-26" v:mID="15" v:groupContext="shape" transform="translate(40.0458,-32.4093)">
				<title>Sheet.15</title>
				<path d="M0 839.98 L5.65 841.89 L19.32 836.17 L25.44 838.08 L22.14 833.31 L6.12 833.31 L12.72 834.74 L0 839.98 L0
							 839.98 Z" class="st5"/>
			</g>
			<g id="shape16-28" v:mID="16" v:groupContext="shape" transform="translate(40.0458,-32.4093)">
				<title>Sheet.16</title>
				<path d="M0 839.98 L5.65 841.89 L19.32 836.17 L25.44 838.08 L22.14 833.31 L6.12 833.31 L12.72 834.74 L0 839.98 L0
							 839.98 Z" class="st5"/>
			</g>
			<g id="shape17-30" v:mID="17" v:groupContext="shape" transform="translate(12.2493,-21.9239)">
				<title>Sheet.17</title>
				<path d="M25.44 834.74 L19.79 832.83 L6.6 838.55 L0 836.65 L3.3 841.89 L19.79 841.89 L12.72 839.98 L25.44 834.74
							 L25.44 834.74 Z" class="st5"/>
			</g>
			<g id="shape18-32" v:mID="18" v:groupContext="shape" transform="translate(12.2493,-21.9239)">
				<title>Sheet.18</title>
				<path d="M25.44 834.74 L19.79 832.83 L6.6 838.55 L0 836.65 L3.3 841.89 L19.79 841.89 L12.72 839.98 L25.44 834.74
							 L25.44 834.74 Z" class="st5"/>
			</g>
			<g id="shape19-34" v:mID="19" v:groupContext="shape" transform="translate(13.6627,-32.8859)">
				<title>Sheet.19</title>
				<path d="M0 835.22 L5.65 833.31 L19.32 838.55 L25.44 837.12 L22.14 841.89 L6.12 841.89 L12.72 840.46 L0 835.22 L0
							 835.22 Z" class="st5"/>
			</g>
			<g id="shape20-36" v:mID="20" v:groupContext="shape" transform="translate(13.6627,-32.8859)">
				<title>Sheet.20</title>
				<path d="M0 835.22 L5.65 833.31 L19.32 838.55 L25.44 837.12 L22.14 841.89 L6.12 841.89 L12.72 840.46 L0 835.22 L0
							 835.22 Z" class="st5"/>
			</g>
			<g id="shape21-38" v:mID="21" v:groupContext="shape" transform="translate(39.1036,-21.4473)">
				<title>Sheet.21</title>
				<path d="M25.44 839.98 L19.79 841.89 L6.6 836.17 L0 838.08 L3.3 833.31 L19.79 833.31 L12.72 834.74 L25.44 839.98
							 L25.44 839.98 Z" class="st5"/>
			</g>
			<g id="shape22-40" v:mID="22" v:groupContext="shape" transform="translate(39.1036,-21.4473)">
				<title>Sheet.22</title>
				<path d="M25.44 839.98 L19.79 841.89 L6.6 836.17 L0 838.08 L3.3 833.31 L19.79 833.31 L12.72 834.74 L25.44 839.98
							 L25.44 839.98 Z" class="st5"/>
			</g>
			<g id="shape23-42" v:mID="23" v:groupContext="shape" transform="translate(7.99361E-015,-12.9064)">
				<title>Sheet.23</title>
				<path d="M0 822.61 L0 841.89" class="st6"/>
			</g>
			<g id="shape1-45" v:mID="1" v:groupContext="shape" transform="translate(76.8189,-12.9064)">
				<title>Sheet.1</title>
				<path d="M0 822.61 L0 841.89" class="st6"/>
			</g>
		</g>
	</g>
</svg>
