<?xml version="1.0" encoding="UTF-8"?><svg xmlns="http://www.w3.org/2000/svg" xmlns:xlink="http://www.w3.org/1999/xlink" fill-opacity="1" color-rendering="auto" color-interpolation="auto" text-rendering="auto" stroke="black" stroke-linecap="square" width="87" stroke-miterlimit="10" shape-rendering="auto" stroke-opacity="1" fill="black" stroke-dasharray="none" font-weight="normal" stroke-width="1" height="67" font-family="'Dialog'" font-style="normal" stroke-linejoin="miter" font-size="12px" stroke-dashoffset="0" image-rendering="auto">
  <!--Generated by ySVG 2.5-->
  <defs id="genericDefs"/>
  <g>
    <defs id="defs1">
      <clipPath clipPathUnits="userSpaceOnUse" id="clipPath1">
        <path d="M0 0 L87 0 L87 67 L0 67 L0 0 Z"/>
      </clipPath>
      <clipPath clipPathUnits="userSpaceOnUse" id="clipPath2">
        <path d="M-16 -16 L71 -16 L71 51 L-16 51 L-16 -16 Z"/>
      </clipPath>
      <clipPath clipPathUnits="userSpaceOnUse" id="clipPath3">
        <path d="M-10.0022 -15.4669 L76.9978 -15.4669 L76.9978 51.5331 L-10.0022 51.5331 L-10.0022 -15.4669 Z"/>
      </clipPath>
    </defs>
    <g text-rendering="geometricPrecision" shape-rendering="geometricPrecision" transform="matrix(1,0,0,1,10.0022,15.4669)">
      <g clip-path="url(#clipPath3)">
        <svg opacity="1" writing-mode="lr-tb" stop-color="rgb(0, 0, 0)" shape-rendering="auto" glyph-orientation-horizontal="0deg" color-profile="auto" lighting-color="rgb(255, 255, 255)" color="rgb(0, 0, 0)" font-weight="400" alignment-baseline="auto" font-style="normal" color-interpolation-filters="linearrgb" text-anchor="start" stroke-linecap="butt" color-interpolation="srgb" font-variant="normal" word-spacing="normal" fill-opacity="1" text-rendering="auto" clip-path="none" text-decoration="none" letter-spacing="normal" viewBox="-3 12786 820 417" glyph-orientation-vertical="auto" display="inline" font-size-adjust="none" fill="rgb(0, 0, 0)" overflow="visible" font-stretch="normal" stroke-dasharray="none" stroke-miterlimit="4" stop-opacity="1" color-rendering="auto" font-size="12" mask="none" direction="ltr" baseline-shift="baseline" pointer-events="visiblepainted" enable-background="accumulate" fill-rule="nonzero" image-rendering="auto" stroke-dashoffset="0" width="0.7in" marker-end="none" clip="auto" cursor="auto" stroke="none" filter="none" visibility="visible" kerning="auto" stroke-width="1" font-family="&quot;Arial&quot;,&quot;Helvetica&quot;,sans-serif" flood-opacity="1" clip-rule="nonzero" src="none" height="0.3in" unicode-bidi="normal" stroke-linejoin="miter" stroke-opacity="1" flood-color="rgb(0, 0, 0)" dominant-baseline="auto" marker-start="none" marker-mid="none">
<g style="stroke-width:.025in; fill:none">
<!-- Line -->
<!--  polyline  -->
<polyline style="stroke:#036998;stroke-width:0; stroke-linejoin:miter; stroke-linecap:butt; fill:#036998; " points="606,13185 606,12992 11,12992 11,13185 606,13185 "/>
<!-- Line -->
<!--  polyline  -->
<polyline style="stroke:#ffffff;stroke-width:7; stroke-linejoin:miter; stroke-linecap:butt; " points="606,13185 606,12992 11,12992 11,13185 606,13185 "/>
<!-- Line -->
<!--  polyline  -->
<polyline style="stroke:#036998;stroke-width:0; stroke-linejoin:miter; stroke-linecap:butt; fill:#036998; " points="9,12993 250,12798 805,12798 606,12993 9,12993 "/>
<!-- Line -->
<!--  polyline  -->
<polyline style="stroke:#ffffff;stroke-width:7; stroke-linejoin:miter; stroke-linecap:butt; " points="9,12993 250,12798 805,12798 606,12993 9,12993 "/>
<!-- Line -->
<!--  polyline  -->
<polyline style="stroke:#036998;stroke-width:0; stroke-linejoin:miter; stroke-linecap:butt; fill:#036998; " points="606,13191 805,12977 805,12799 606,12993 606,13191 "/>
<!-- Line -->
<!--  polyline  -->
<polyline style="stroke:#ffffff;stroke-width:7; stroke-linejoin:miter; stroke-linecap:butt; " points="606,13191 805,12977 805,12799 606,12993 606,13191 "/>
<!-- Line -->
<!--  polyline  -->
<polyline style="stroke:#ffffff;stroke-width:0; stroke-linejoin:miter; stroke-linecap:butt; fill:#ffffff; " points="358,12942 347,12952 198,12952 184,12967 143,12949 224,12926 210,12942 358,12942 "/>
<!-- Line -->
<!--  polyline  -->
<polyline style="stroke:#ffffff;stroke-width:0; stroke-linejoin:miter; stroke-linecap:butt; fill:#ffffff; " points="475,12870 463,12879 315,12879 300,12894 260,12876 341,12853 327,12870 475,12870 "/>
<!-- Line -->
<!--  polyline  -->
<polyline style="stroke:#ffffff;stroke-width:0; stroke-linejoin:miter; stroke-linecap:butt; fill:#ffffff; " points="385,12917 396,12907 545,12907 559,12892 600,12910 519,12933 533,12917 385,12917 "/>
<!-- Line -->
<!--  polyline  -->
<polyline style="stroke:#ffffff;stroke-width:0; stroke-linejoin:miter; stroke-linecap:butt; fill:#ffffff; " points="462,12844 473,12834 622,12834 636,12819 677,12837 596,12860 610,12844 462,12844 "/>
</g>
</svg>
      </g>
    </g>
  </g>
</svg>
